<svg xmlns="http://www.w3.org/2000/svg" width="38" height="38" viewBox="0 0 38 38">
  <g id="Group_8075" data-name="Group 8075" transform="translate(-526.326 -17.112)">
    <g id="Group_8056" data-name="Group 8056" transform="translate(526.326 17.112)">
      <circle id="Ellipse_1357" data-name="Ellipse 1357" cx="19" cy="19" r="19" transform="translate(0 0)" fill="#fff"/>
    </g>
    <g id="Group_8055" data-name="Group 8055" transform="translate(531.291 25.294)">
      <g id="Group_8050" data-name="Group 8050" transform="translate(16.144 1.618)">
        <g id="Group_8049" data-name="Group 8049" transform="translate(0 0)">
          <path id="Path_17152" data-name="Path 17152" d="M3975.652-1900.812a1.668,1.668,0,0,0,.86-1.46,1.67,1.67,0,0,0-1.67-1.67,1.67,1.67,0,0,0-1.67,1.67,1.669,1.669,0,0,0,1.279,1.622c.023,1.04,0,2.016-.056,2.934q.658-.517,1.3-1.037C3975.711-1899.811,3975.669-1900.557,3975.652-1900.812Zm-.809-.513a.947.947,0,0,1-.947-.947.947.947,0,0,1,.947-.947.947.947,0,0,1,.947.947A.947.947,0,0,1,3974.843-1901.325Z" transform="translate(-3967.25 1903.942)" fill="#f69f00"/>
          <path id="Path_17153" data-name="Path 17153" d="M3845.384-1716.85l.522,1.157c5.493-2.419,7.219-8.548,7.728-13q-.734.7-1.5,1.4C3850.54-1718.714,3845.384-1716.85,3845.384-1716.85Z" transform="translate(-3845.384 1736.821)" fill="#f69f00"/>
        </g>
      </g>
      <g id="Group_8052" data-name="Group 8052" transform="translate(5.634 3.528)">
        <g id="Group_8051" data-name="Group 8051" transform="translate(0)">
          <path id="Path_17154" data-name="Path 17154" d="M3629.816-1862.738a16.2,16.2,0,0,1-7.9,1.853s-.482,6.58,2.52,11.18a38.668,38.668,0,0,0,5.384-2.417Z" transform="translate(-3621.884 1862.738)" fill="#f69f00"/>
          <path id="Path_17155" data-name="Path 17155" d="M3740.531-1547.726v-2.533q-1.256.751-2.552,1.409A9.155,9.155,0,0,0,3740.531-1547.726Z" transform="translate(-3732.598 1564.742)" fill="#f69f00"/>
        </g>
      </g>
      <path id="Path_17156" data-name="Path 17156" d="M3547.567-1938.85c-3.1,2.2-7.687,2.342-8.909,2.338a1.68,1.68,0,0,0-1.337-.663,1.684,1.684,0,0,0-1.684,1.684,1.684,1.684,0,0,0,1.684,1.684,1.683,1.683,0,0,0,1.652-1.36,18.857,18.857,0,0,0,8.594-2.064c2.636,1.505,7.26,2.069,7.26,2.069v-1.349A21.618,21.618,0,0,1,3547.567-1938.85Zm-10.246,4.314a.955.955,0,0,1-.955-.955.955.955,0,0,1,.955-.955.955.955,0,0,1,.955.955A.955.955,0,0,1,3537.321-1934.536Z" transform="translate(-3534.075 1938.85)" fill="#f69f00"/>
      <g id="Group_8054" data-name="Group 8054" transform="translate(2.698 6.179)">
        <g id="Group_8053" data-name="Group 8053" transform="translate(0)">
          <path id="Path_17157" data-name="Path 17157" d="M3679.051-1499.945a1.662,1.662,0,0,0-1.206.517,11.805,11.805,0,0,1-3.048-1.769c-.427.19-.858.368-1.29.539a12.342,12.342,0,0,0,3.878,2.471,1.668,1.668,0,0,0,1.665,1.581,1.67,1.67,0,0,0,1.669-1.67A1.67,1.67,0,0,0,3679.051-1499.945Zm0,2.617a.947.947,0,0,1-.947-.947.947.947,0,0,1,.947-.947.947.947,0,0,1,.947.947A.947.947,0,0,1,3679.051-1497.328Z" transform="translate(-3668.253 1515.303)" fill="#f69f00"/>
          <path id="Path_17158" data-name="Path 17158" d="M3563.974-1794.561c-2.969-4.878-2.393-10.974-2.393-10.974h-1.418a20.51,20.51,0,0,0,2.54,11.3Q3563.337-1794.378,3563.974-1794.561Z" transform="translate(-3560.151 1805.535)" fill="#f69f00"/>
        </g>
      </g>
      <path id="Path_17159" data-name="Path 17159" d="M3532.292-1885.652l-3.285.633,1.592.749c-3.309,2.993-16.454,14.326-25.839,14.373a.7.7,0,0,1-.7-.57c-.065-.416.162-1.026,1.457-1.708a8.556,8.556,0,0,1-.765-1.758s-7,8.553,1.05,6.458c12.465-3.245,22.15-13.54,24.834-16.629l.181,1.687Z" transform="translate(-3501.93 1888.118)" fill="#e50019"/>
      <path id="Path_17160" data-name="Path 17160" d="M3793.233-1651.559c4.04-1.1,6.038-4.362,7.017-7.58a55.423,55.423,0,0,1-7.017,5.041Z" transform="translate(-3779.559 1672.104)" fill="#e50019"/>
      <path id="Path_17161" data-name="Path 17161" d="M3700.977-1860.885a16.2,16.2,0,0,1-7.9-1.853v4.171h-.009a2.419,2.419,0,0,0-.473.052l-.519-1.149a.743.743,0,0,0,.262-.5.746.746,0,0,0-.676-.809.745.745,0,0,0-.809.676.745.745,0,0,0,.676.809.753.753,0,0,0,.156,0l.5,1.1a2.448,2.448,0,0,0-1.292,1.169l-.89-.5a.91.91,0,0,0,.042-.208.918.918,0,0,0-.85-.98.917.917,0,0,0-.98.849.917.917,0,0,0,.849.981.913.913,0,0,0,.751-.31l.93.524a2.442,2.442,0,0,0-.117.748,2.441,2.441,0,0,0,.058.524l-1.1.155a.717.717,0,0,0-.606-.334.72.72,0,0,0-.72.719.72.72,0,0,0,.72.72.72.72,0,0,0,.72-.72c0-.005,0-.01,0-.016l1.1-.156a2.445,2.445,0,0,0,1.016,1.2l-.472.754a.716.716,0,0,0-.258-.047.72.72,0,0,0-.712.727.719.719,0,0,0,.727.712.719.719,0,0,0,.712-.727.713.713,0,0,0-.16-.44l.5-.807a2.437,2.437,0,0,0,.915.179h.009v1.553a64.224,64.224,0,0,0,7.784-5.021A22.8,22.8,0,0,0,3700.977-1860.885Z" transform="translate(-3679.424 1866.266)" fill="#e50019"/>
    </g>
  </g>
</svg>
