<svg id="Group_8075" data-name="Group 8075" xmlns="http://www.w3.org/2000/svg" width="73.534" height="20.873" viewBox="0 0 73.534 20.873">
  <path id="Path_1" data-name="Path 1" d="M209.43,555.135a.413.413,0,0,0,.042-.433.341.341,0,0,0-.137-.126.4.4,0,0,0-.161-.056,1.572,1.572,0,0,0-.224-.013h-.5v1.367h.324v-.5h.132l.4.5h.41l-.495-.588A.572.572,0,0,0,209.43,555.135Zm-.293-.122a.14.14,0,0,1-.057.063.176.176,0,0,1-.093.04.672.672,0,0,1-.135.014h-.078v-.386h.1a.841.841,0,0,1,.116.005.231.231,0,0,1,.085.026.15.15,0,0,1,.063.059.217.217,0,0,1,.017.08A.3.3,0,0,1,209.137,555.012Zm.808-.759a1.369,1.369,0,1,0,.4.971A1.315,1.315,0,0,0,209.945,554.253Zm-.212,1.729a1.042,1.042,0,0,1-.757.32,1.03,1.03,0,0,1-.756-.32,1.076,1.076,0,0,1,0-1.52,1.025,1.025,0,0,1,.756-.317,1.036,1.036,0,0,1,.757.317,1.081,1.081,0,0,1,0,1.52Zm-12.493,8.193-3.2-9.109H188.3l5.572,13.765h6.553l5.613-13.765H200.4Zm-47.251-6.683-.04-.013a5.9,5.9,0,0,0,.894-.442,4.814,4.814,0,0,0-2.63-8.807h.3l-11.7-.007v20.609h9.6c.181,0,.359,0,.538-.008h2.3l.3-.007c3.129-.11,5.179-2.677,5.179-5.833A5.918,5.918,0,0,0,149.989,557.492Zm-7.578-5.471h2.756a3.622,3.622,0,0,1,.932.143,2.172,2.172,0,0,1,1.26,1.4,2.03,2.03,0,0,1,.058.481,2.936,2.936,0,0,1-.181,1.05,2.141,2.141,0,0,1-.613.774,2.335,2.335,0,0,1-.3.168,2.939,2.939,0,0,1-1.1.291c-.358.019-.527.028-1.411.028h-1.4Zm5.27,12.472a3.268,3.268,0,0,1-1.76.526h-3.51V559.9h2.97c.213,0,.391.005.494.005a4.077,4.077,0,0,1,1.3.2c.081.029.163.061.246.095a2.493,2.493,0,0,1,.264,4.289Zm18.867-9.391-4.839,6.184V548.217h-5.441v20.614h5.439l2.341-2.973,2.175,2.973h6.2l-5.228-7.023,5.244-6.706Zm19.949.538c-1.109-.809-3.805-1.212-6.231-1.212a19.277,19.277,0,0,0-2.938.257,16.782,16.782,0,0,0-3.435.9l1.557,3.153a8.27,8.27,0,0,1,3.357-1.148,7.862,7.862,0,0,1,2.172-.034,2.644,2.644,0,0,1,1.245.458,1.692,1.692,0,0,1,.665,1.492v.1a24.856,24.856,0,0,0-6.1.693c-1.845.542-3.769,2.181-3.769,4.351a4.553,4.553,0,0,0,4.572,4.421c.066,0,.67.01.67.01a9.619,9.619,0,0,0,4.605-1.461l.91,1.22h4.388v-9.586A4.133,4.133,0,0,0,186.5,555.64Zm-3.634,9.437a4,4,0,0,1-2.566,1.2,1.742,1.742,0,0,1-.244-.015c-.04,0-.073-.01-.11-.013-.021,0-.048-.009-.068-.012a1.842,1.842,0,0,1-.009-3.613c.015-.005.03-.008.048-.014.748-.167,2.951-.373,2.951-.373Z" transform="translate(-136.813 -548.217)" fill="#fff"/>
</svg>
