<svg width="57" height="57" viewBox="0 0 57 57" fill="none" xmlns="http://www.w3.org/2000/svg">
<g clip-path="url(#clip0)">
<path d="M28.2327 56.7262C43.8252 56.7262 56.4654 44.0276 56.4654 28.3631C56.4654 12.6986 43.8252 0 28.2327 0C12.6402 0 0 12.6986 0 28.3631C0 44.0276 12.6402 56.7262 28.2327 56.7262Z" fill="white"/>
<path d="M4.26196 17.1611L4.69626 16.3081C4.75853 16.1811 4.83007 16.0588 4.91036 15.9425C4.96354 15.8683 5.03287 15.8072 5.11305 15.764C5.19322 15.7207 5.28218 15.6963 5.37313 15.6928C5.47096 15.6876 5.56831 15.7094 5.65464 15.7559C5.75086 15.8064 5.83038 15.884 5.88356 15.9791C5.93673 16.0742 5.96128 16.1827 5.95416 16.2915C6.04493 16.1891 6.16627 16.1188 6.30007 16.0914C6.42757 16.0692 6.55879 16.0904 6.67294 16.1516C6.77029 16.2025 6.85481 16.2751 6.92005 16.3637C6.98688 16.4514 7.02974 16.5552 7.04435 16.6646C7.05874 16.7806 7.04273 16.8983 6.99792 17.0061C6.96947 17.0813 6.88561 17.2574 6.74634 17.5327L6.37644 18.2578L4.26196 17.1611ZM4.834 16.9129L5.32519 17.1656L5.47495 16.8843C5.56081 16.7158 5.61073 16.61 5.62471 16.5668C5.65272 16.4996 5.65694 16.4247 5.63668 16.3547C5.62625 16.3216 5.60897 16.2911 5.586 16.2652C5.56303 16.2393 5.53487 16.2185 5.50337 16.2043C5.44685 16.1712 5.37993 16.161 5.31618 16.1757C5.2502 16.1955 5.1941 16.2395 5.15897 16.299C5.13202 16.3396 5.06761 16.4615 4.96278 16.6646L4.834 16.9129ZM5.67859 17.3477L6.24615 17.6395L6.44983 17.2408C6.50344 17.1443 6.54952 17.0437 6.58762 16.94C6.61156 16.8729 6.6094 16.7993 6.58163 16.7337C6.55387 16.6682 6.50255 16.6155 6.43786 16.5864C6.38128 16.555 6.31641 16.5419 6.25213 16.5488C6.18922 16.5584 6.13101 16.5879 6.08592 16.633C5.99535 16.7444 5.91983 16.8674 5.8613 16.9986L5.67859 17.3477Z" fill="#034A9A"/>
<path d="M5.87175 13.8694V14.086L5.69653 14.3553L5.71299 13.9401L5.86275 13.6949L6.23416 13.5113L6.06045 13.7821L5.87175 13.8694ZM6.42879 15.6085C6.25159 15.499 6.0987 15.3541 5.97956 15.1827C5.90903 15.0699 5.85836 14.9457 5.8298 14.8157C5.80098 14.6923 5.79692 14.5645 5.81782 14.4395C5.85184 14.2658 5.92006 14.1006 6.01849 13.9536C6.09704 13.8183 6.20293 13.701 6.3293 13.6093C6.45568 13.5176 6.59973 13.4535 6.75226 13.421C7.08207 13.37 7.41857 13.4522 7.68821 13.6497C7.9015 13.7628 8.07453 13.9397 8.18324 14.156C8.29195 14.3723 8.33097 14.6171 8.29493 14.8567C8.25889 15.0963 8.14954 15.3186 7.98207 15.4929C7.81459 15.6673 7.59729 15.785 7.36026 15.8297C7.19973 15.8557 7.03564 15.8495 6.87753 15.8112C6.71942 15.773 6.57046 15.7036 6.43931 15.607L6.42879 15.6085ZM6.6849 15.1812C6.86179 15.3147 7.08146 15.3779 7.30186 15.3587C7.39073 15.3462 7.47576 15.314 7.55084 15.2646C7.62591 15.2152 7.68918 15.1497 7.73615 15.0729C7.78719 14.9993 7.82122 14.9152 7.83573 14.8267C7.85024 14.7382 7.84486 14.6475 7.82001 14.5614C7.74465 14.3498 7.59428 14.1736 7.39769 14.0665C7.22322 13.9323 7.00587 13.867 6.78672 13.8829C6.61364 13.9178 6.46138 14.0202 6.3634 14.1677C6.26541 14.3152 6.2297 14.4958 6.26409 14.6697V14.6908C6.33842 14.9004 6.4872 15.0751 6.68188 15.1812H6.6849ZM8.45795 15.8417L8.07456 15.5919L8.32318 15.2068L8.70656 15.4565L8.45795 15.8417Z" fill="#034A9A"/>
<path d="M9.7774 12.911L8.2664 11.6202L7.80816 12.1618L7.49963 11.9001L8.72912 10.4498L9.02864 10.7116L8.57936 11.2517L10.0873 12.5425L9.7774 12.911Z" fill="#034A9A"/>
<path d="M10.7238 11.8083L9.05103 10.1008L9.39396 9.76075L10.0514 10.4333L10.7238 9.76979L10.0648 9.09732L10.4063 8.76483L12.079 10.4723L11.7361 10.8124L11.0038 10.0601L10.3314 10.7251L11.0637 11.4773L10.7238 11.8083Z" fill="#034A9A"/>
<path d="M11.2105 7.88323L11.1746 7.29198L11.504 7.0257L12.0686 7.18969L11.7826 7.42136L11.483 7.35066L11.498 7.65156L11.2105 7.88323ZM11.5968 9.30494C11.4602 9.14531 11.3582 8.95878 11.2974 8.7573C11.2629 8.62846 11.2517 8.49444 11.2644 8.36163C11.2748 8.23475 11.311 8.11135 11.3707 7.99907C11.4565 7.84431 11.5726 7.70866 11.7121 7.60037C11.8286 7.49669 11.9654 7.41864 12.1137 7.37123C12.262 7.32381 12.4185 7.3081 12.5732 7.32509C12.8945 7.39741 13.182 7.5768 13.3889 7.83411C13.5958 8.09142 13.71 8.41148 13.7129 8.74224C13.6968 8.89722 13.6485 9.04709 13.5711 9.18212C13.4938 9.31715 13.389 9.43432 13.2636 9.52605C13.1473 9.63022 13.0106 9.70894 12.8624 9.75712C12.7141 9.8053 12.5575 9.82188 12.4025 9.80588C12.2422 9.77945 12.0886 9.72146 11.9506 9.63523C11.8126 9.54899 11.6928 9.43625 11.5983 9.30342L11.5968 9.30494ZM11.9727 8.97846C12.0988 9.16164 12.2884 9.29093 12.5044 9.34102C12.5927 9.35687 12.6835 9.35295 12.7702 9.32955C12.8569 9.30614 12.9374 9.26384 13.006 9.20563C13.0771 9.15144 13.1352 9.08198 13.1762 9.00233C13.2171 8.92268 13.2398 8.83487 13.2426 8.74527C13.237 8.5212 13.1496 8.30702 12.997 8.14351C12.8727 7.96133 12.6863 7.83125 12.4729 7.77791C12.3854 7.76634 12.2965 7.77235 12.2113 7.79559C12.1261 7.81882 12.0464 7.85882 11.9767 7.91326C11.9071 7.96771 11.8489 8.03552 11.8055 8.11275C11.7621 8.18997 11.7345 8.2751 11.7242 8.36315C11.7242 8.36315 11.7242 8.3767 11.7242 8.38422C11.7283 8.6083 11.8153 8.82279 11.9682 8.98599L11.9727 8.97846Z" fill="#034A9A"/>
<path d="M14.4047 8.58577L13.1003 6.57888L13.4927 6.32164L15.1804 7.125L14.3103 5.78603L14.6847 5.54082L15.9876 7.54624L15.5832 7.81101L13.927 7.03171L14.7776 8.33909L14.4047 8.58577Z" fill="#034A9A"/>
<path d="M16.9579 6.01622L16.7722 5.65816L17.6932 5.17824L18.1319 6.02527C18.0704 6.18599 17.9784 6.33315 17.8609 6.45854C17.7304 6.60941 17.5729 6.73442 17.3966 6.82712C17.1972 6.93691 16.9726 6.9924 16.7452 6.98808C16.5356 6.98302 16.3331 6.91081 16.1672 6.78198C15.9916 6.64926 15.8487 6.47787 15.7494 6.281C15.639 6.07754 15.5818 5.84925 15.5832 5.61753C15.5873 5.40106 15.6574 5.19108 15.7838 5.01576C15.9021 4.85785 16.0561 4.73051 16.2331 4.6442C16.4444 4.51944 16.6902 4.46666 16.9339 4.49375C17.1405 4.52788 17.3269 4.63842 17.4565 4.80365L17.0732 5.10456C16.9946 5.0184 16.8888 4.96205 16.7737 4.94506C16.6509 4.92986 16.5265 4.95464 16.4187 5.01576C16.3341 5.05491 16.2587 5.11181 16.1978 5.18265C16.1368 5.25349 16.0917 5.33665 16.0653 5.42649C16.0212 5.63838 16.0598 5.85921 16.1731 6.04331C16.2629 6.25486 16.4271 6.42573 16.6344 6.52323C16.7215 6.5567 16.8148 6.57042 16.9077 6.5634C17.0007 6.55638 17.0909 6.52878 17.172 6.48259C17.2645 6.43474 17.3469 6.36936 17.4146 6.29004C17.4806 6.21472 17.536 6.13068 17.5793 6.04028L17.4386 5.77101L16.9579 6.01622Z" fill="#034A9A"/>
<path d="M19.9829 5.62659L19.3046 3.75808L18.6397 4.00178L18.5004 3.62117L20.2824 2.96973L20.4202 3.35038L19.7568 3.59408L20.4352 5.46411L19.9829 5.62659Z" fill="#034A9A"/>
<path d="M21.3561 5.15568L20.6732 2.85839L21.1345 2.72002L21.8173 5.01578L21.3561 5.15568Z" fill="#034A9A"/>
<path d="M22.2276 4.8849L21.6975 2.5485L22.1542 2.44318L23.4586 3.78513L23.1052 2.22505L23.5424 2.12575L24.0726 4.46215L23.6008 4.57045L22.319 3.2616L22.6634 4.78559L22.2276 4.8849Z" fill="#034A9A"/>
<path d="M26.0164 4.19133L24.9397 1.88657L25.4594 1.83689L26.229 3.54444L26.6424 1.72257L27.1515 1.67441L26.5286 4.14019L26.0164 4.19133Z" fill="#034A9A"/>
<path d="M29.7288 4.04539H29.2046L28.9905 3.5023L28.0366 3.51433L27.8464 4.06196H27.3357L28.2342 1.65486H28.7434L29.7288 4.04539ZM28.7553 1.52245H28.4678L28.0186 1.03955H28.5322L28.7553 1.52245ZM28.8302 3.10663L28.4903 2.22205L28.1803 3.11568L28.8302 3.10663Z" fill="#034A9A"/>
<path d="M31.3685 4.19285L31.6021 2.2175L30.8998 2.13325L30.9462 1.7301L32.8286 1.95424L32.7807 2.35744L32.0798 2.27319L31.8462 4.2485L31.3685 4.19285Z" fill="#034A9A"/>
<path d="M32.8031 4.38091L33.2928 2.03546L34.2842 2.24307C34.4692 2.27315 34.6483 2.33311 34.8143 2.42061C34.919 2.48651 34.9982 2.58625 35.0389 2.70343C35.0848 2.82809 35.0936 2.96346 35.0644 3.09308C35.0372 3.25383 34.9498 3.39807 34.8203 3.49628C34.6705 3.59525 34.4906 3.6379 34.3126 3.61666C34.3951 3.6892 34.4667 3.77329 34.5252 3.86637C34.6004 4.00633 34.664 4.15226 34.7154 4.30267L34.9056 4.82019L34.3411 4.70132L34.1074 4.11912C34.0573 3.98298 33.9982 3.85029 33.9307 3.72194C33.9014 3.67031 33.8597 3.6269 33.8094 3.59559C33.7362 3.55897 33.658 3.53359 33.5773 3.52034L33.483 3.49931L33.2793 4.47718L32.8031 4.38091ZM33.5519 3.12619L33.9008 3.19992C34.0407 3.23704 34.1845 3.25726 34.3291 3.26011C34.3856 3.25331 34.4382 3.22791 34.4789 3.18789C34.5235 3.14299 34.5528 3.08504 34.5627 3.02238C34.5804 2.95421 34.5724 2.88192 34.5402 2.81931C34.5041 2.75882 34.4479 2.71298 34.3815 2.68989C34.3446 2.67685 34.2308 2.6503 34.0401 2.61018L33.6732 2.53347L33.5519 3.12619Z" fill="#034A9A"/>
<path d="M35.8117 2.59662L36.2729 2.74707L35.888 3.98673C35.8449 4.11299 35.8109 4.24219 35.7862 4.37335C35.7762 4.46921 35.8012 4.56549 35.8566 4.64419C35.9265 4.73353 36.0239 4.79702 36.1336 4.82471C36.2359 4.86534 36.3491 4.86958 36.4541 4.83674C36.5315 4.80752 36.5954 4.75078 36.6338 4.67729C36.6899 4.55301 36.737 4.42479 36.7746 4.29365L37.1669 3.02842L37.6267 3.17887L37.2538 4.3824C37.1991 4.57899 37.1259 4.76991 37.0352 4.95258C36.9809 5.05216 36.9026 5.13647 36.8075 5.19779C36.7088 5.25718 36.5974 5.29227 36.4825 5.30013C36.3263 5.30709 36.1702 5.28356 36.0228 5.23089C35.8519 5.18642 35.6916 5.10819 35.5511 5.00074C35.4622 4.9249 35.3924 4.82901 35.3474 4.72091C35.3074 4.62596 35.2899 4.52291 35.2965 4.42C35.3198 4.21513 35.365 4.01339 35.4313 3.81824L35.8117 2.59662Z" fill="#034A9A"/>
<path d="M37.9171 5.85222L38.3035 4.92251L38.0294 3.30371L38.5506 3.52188L38.7003 4.61261L39.5704 3.95065L40.0826 4.16428L38.7347 5.10905L38.3499 6.03729L37.9171 5.85222Z" fill="#034A9A"/>
<path d="M39.3368 6.46756L40.4449 4.3463L42.0113 5.17225L41.8241 5.53027L40.6845 4.92851L40.4405 5.39942L41.5007 5.95753L41.3135 6.31559L40.2533 5.75744L39.9537 6.33363L41.1323 6.955L40.9451 7.31302L39.3368 6.46756ZM41.3659 4.60354L41.1517 4.62613L40.8672 4.47568L41.2805 4.45461L41.5366 4.58853L41.7522 4.94205L41.4692 4.7916L41.3659 4.60354ZM41.6025 4.56296L41.3479 4.42903L41.1038 3.99879L41.5531 4.23799L41.6025 4.56296Z" fill="#034A9A"/>
<path d="M41.2566 7.49958L42.5565 5.48965L42.9488 5.74543L42.9009 7.62147L43.7679 6.27952L44.1438 6.52473L42.844 8.53466L42.4381 8.26988L42.4786 6.43447L41.6325 7.74484L41.2566 7.49958Z" fill="#034A9A"/>
<path d="M44.3416 9.70359L45.6189 8.18263L45.0768 7.73128L45.3374 7.42137L46.7855 8.64749L46.5249 8.95739L45.9858 8.50608L44.7099 10.027L44.3416 9.70359Z" fill="#034A9A"/>
<path d="M45.4452 10.6544L47.1373 8.96791L47.4773 9.31092L46.8109 9.97439L47.4758 10.6469L48.1422 9.98343L48.4821 10.3264L46.7885 12.0129L46.4485 11.6699L47.1898 10.9327L46.5249 10.2602L45.7836 10.9974L45.4452 10.6544Z" fill="#034A9A"/>
<path d="M47.9385 11.5179C48.0971 11.3811 48.2822 11.2787 48.4821 11.217C48.6104 11.1826 48.7437 11.1715 48.8759 11.184C49.002 11.1934 49.1249 11.2287 49.2368 11.2878C49.3905 11.3739 49.5254 11.49 49.6337 11.6293C49.7373 11.7461 49.8155 11.8834 49.8632 12.0324C49.911 12.1813 49.9271 12.3387 49.9107 12.4943C49.8398 12.8172 49.6623 13.1064 49.407 13.3151C49.1517 13.5238 48.8337 13.6396 48.5046 13.6437C48.3501 13.6277 48.2006 13.5793 48.0659 13.5015C47.9313 13.4237 47.8144 13.3184 47.7229 13.1924C47.6186 13.0758 47.5396 12.9387 47.4912 12.7897C47.4427 12.6408 47.4257 12.4832 47.4413 12.3273C47.467 12.1662 47.5242 12.0117 47.6096 11.8728C47.6949 11.7339 47.8066 11.6133 47.9385 11.5179ZM48.2634 11.894C48.0826 12.0222 47.9551 12.2129 47.9055 12.4296C47.8928 12.5133 47.8966 12.5987 47.9167 12.6809C47.9368 12.7631 47.9729 12.8405 48.0228 12.9087C48.0727 12.9769 48.1356 13.0345 48.2077 13.0783C48.2798 13.1221 48.3598 13.1511 48.4431 13.1638H48.5015C48.7194 13.1411 48.9261 13.0556 49.0967 12.9176C49.2673 12.7796 49.3945 12.595 49.463 12.386C49.4832 12.2096 49.4329 12.0324 49.3231 11.8934C49.2133 11.7543 49.053 11.6647 48.8774 11.6443H48.858C48.6347 11.6489 48.4212 11.7369 48.259 11.8911L48.2634 11.894ZM49.3506 11.1253L49.9392 11.0876L50.2057 11.4186L50.0455 11.9858L49.8134 11.6985L49.8823 11.3976L49.5827 11.4141L49.3506 11.1253Z" fill="#034A9A"/>
<path d="M48.6664 14.3372L50.6581 13.0209L50.9157 13.4135L50.1205 15.112L51.4518 14.2334L51.6974 14.608L49.7057 15.9244L49.4391 15.5182L50.2118 13.8528L48.912 14.7104L48.6664 14.3372Z" fill="#034A9A"/>
<path d="M51.2316 16.8978L51.588 16.7113L52.0673 17.635L51.2242 18.0758C51.0645 18.0147 50.918 17.9233 50.7928 17.8065C50.643 17.675 50.5186 17.5169 50.426 17.3401C50.3156 17.14 50.2593 16.9144 50.2627 16.6857C50.2686 16.4751 50.3399 16.2715 50.4664 16.1034C50.5999 15.9278 50.7707 15.7844 50.9666 15.6837C51.1683 15.5733 51.3943 15.5154 51.624 15.5152C51.8394 15.5198 52.0483 15.5901 52.223 15.7168C52.38 15.8358 52.5067 15.9905 52.5929 16.1681C52.7165 16.3806 52.769 16.6275 52.7426 16.8722C52.7086 17.0794 52.5992 17.2665 52.4356 17.3973L52.1361 17.0136C52.2211 16.9343 52.2766 16.8281 52.2934 16.7127C52.3093 16.5893 52.2846 16.4641 52.223 16.3562C52.1841 16.2711 52.1275 16.1953 52.057 16.1341C51.9864 16.0728 51.9036 16.0275 51.8142 16.0011C51.603 15.9579 51.3834 15.9972 51.2002 16.111C50.9898 16.2015 50.8199 16.3663 50.7225 16.5743C50.6889 16.6615 50.6751 16.755 50.6821 16.8482C50.6891 16.9414 50.7167 17.0319 50.7629 17.1129C50.8116 17.2056 50.8771 17.2882 50.9561 17.3566C51.0306 17.4236 51.1143 17.4793 51.2047 17.5222L51.4727 17.3807L51.2316 16.8978Z" fill="#034A9A"/>
<path d="M2.32714 22.0896L4.83848 22.5861L4.68877 23.3473L2.89173 23.4661L4.51506 24.2575L4.3653 25.0217L1.85547 24.5253L1.94829 24.0529L3.92502 24.4425L2.04563 23.5519L2.14146 23.0615L4.21554 22.9531L2.24031 22.5605L2.32714 22.0896Z" fill="#034A9A"/>
<path d="M1.79404 25.1436L4.3398 25.4445L4.27988 25.9605L1.73413 25.6596L1.79404 25.1436Z" fill="#034A9A"/>
<path d="M1.65776 26.2674L4.21398 26.3803L4.19305 26.8842L2.43943 27.8606L4.14511 27.9374L4.12413 28.4187L1.56787 28.3044L1.59036 27.7839L3.30353 26.8225L1.63528 26.7488L1.65776 26.2674Z" fill="#034A9A"/>
<path d="M1.58887 28.9378L4.14664 28.8716L4.15861 29.3921L1.60084 29.4583L1.58887 28.9378Z" fill="#034A9A"/>
<path d="M2.43191 29.8495L2.52624 30.3475C2.3874 30.3772 2.2631 30.4543 2.17435 30.5656C2.10071 30.68 2.07092 30.8174 2.09048 30.9522C2.0928 31.0872 2.14205 31.2171 2.22973 31.3193C2.26218 31.3549 2.30219 31.3827 2.34677 31.4007C2.39136 31.4187 2.43937 31.4263 2.4873 31.4231C2.54366 31.4193 2.59679 31.3952 2.63706 31.3554C2.68494 31.2992 2.71701 31.2312 2.72993 31.1584C2.7449 31.0967 2.77033 30.9553 2.80328 30.7356C2.8229 30.5226 2.89053 30.3167 3.00098 30.1338C3.05723 30.0534 3.13039 29.9864 3.21527 29.9375C3.30014 29.8886 3.39467 29.8591 3.49217 29.851C3.62178 29.8385 3.75216 29.8652 3.86655 29.9277C3.99079 29.9961 4.09113 30.1011 4.15405 30.2286C4.23208 30.3826 4.27794 30.5511 4.28882 30.7236C4.33262 30.9843 4.27935 31.2521 4.13911 31.4758C4.07631 31.5618 3.99575 31.6333 3.90297 31.6852C3.81019 31.7371 3.70736 31.7683 3.60148 31.7767L3.5311 31.2621C3.63885 31.242 3.73508 31.1818 3.80065 31.0936C3.85554 30.9916 3.87501 30.8741 3.85604 30.7597C3.85126 30.6346 3.80785 30.5142 3.73178 30.4151C3.71216 30.3909 3.6868 30.372 3.65801 30.3602C3.62923 30.3484 3.59793 30.344 3.56702 30.3475C3.5366 30.3497 3.50715 30.3591 3.48111 30.3751C3.45506 30.3911 3.43315 30.413 3.41726 30.4392C3.345 30.5933 3.30235 30.7597 3.2915 30.9297C3.26929 31.1258 3.22458 31.3186 3.15823 31.5044C3.10879 31.6236 3.02864 31.7274 2.92607 31.8053C2.80947 31.8884 2.67198 31.9368 2.52926 31.9452C2.38381 31.9589 2.23753 31.9296 2.10844 31.8609C1.97255 31.7904 1.86205 31.6788 1.79247 31.542C1.70744 31.3705 1.65656 31.1839 1.64271 30.9928C1.5997 30.7278 1.65285 30.4561 1.79247 30.2271C1.94755 30.0212 2.17746 29.8855 2.43191 29.8495Z" fill="#034A9A"/>
<path d="M1.98877 33.1487L4.08528 32.7591L3.94599 32.0068L4.37132 31.9271L4.74269 33.9355L4.3174 34.0153L4.17815 33.263L2.08159 33.6542L1.98877 33.1487Z" fill="#034A9A"/>
<path d="M2.33618 34.8818L4.79661 34.1717L5.09609 35.2248C5.16191 35.4185 5.19532 35.6219 5.19494 35.8266C5.1858 35.9584 5.13309 36.0833 5.04518 36.1816C4.95037 36.2883 4.82647 36.3647 4.6888 36.4013C4.52327 36.4561 4.34305 36.4447 4.18559 36.3697C4.0173 36.2769 3.88729 36.1271 3.81871 35.947C3.79203 36.0618 3.74814 36.1718 3.68846 36.2734C3.59484 36.4156 3.48858 36.5491 3.37098 36.6721L2.97713 37.1114L2.8064 36.5096L3.23767 35.9951C3.34156 35.8797 3.43716 35.757 3.52371 35.628C3.55761 35.574 3.57816 35.5126 3.58363 35.449C3.58143 35.3605 3.5663 35.2728 3.5387 35.1887L3.50872 35.0879L2.48142 35.3888L2.33618 34.8818ZM3.89809 34.9706L4.00444 35.3407C4.03966 35.4927 4.0924 35.6401 4.16165 35.7799C4.19697 35.8333 4.25008 35.8722 4.31141 35.8898C4.37616 35.9107 4.44582 35.9107 4.51057 35.8898C4.58389 35.8721 4.64832 35.8283 4.69177 35.7664C4.73065 35.7019 4.74599 35.6259 4.73519 35.5513C4.73519 35.5092 4.69776 35.3858 4.63935 35.1857L4.52853 34.796L3.89809 34.9706Z" fill="#034A9A"/>
<path d="M3.31848 38.0035L4.32179 37.6078L5.35956 36.1877L5.58121 36.7549L4.85791 37.6891L6.0155 37.8711L6.23263 38.4278L4.50747 38.0923L3.50713 38.4865L3.31848 38.0035Z" fill="#034A9A"/>
<path d="M5.50932 39.9232C5.70167 39.8067 5.91572 39.7309 6.13829 39.7005C6.28008 39.6878 6.42296 39.7 6.56057 39.7366C6.69244 39.7692 6.8163 39.8287 6.92448 39.9112C7.07205 40.0298 7.19428 40.1772 7.28387 40.3444C7.37297 40.4864 7.43155 40.6455 7.4558 40.8116C7.48004 40.9777 7.46944 41.147 7.42467 41.3087C7.36731 41.4771 7.27747 41.6324 7.1603 41.7659C7.04312 41.8994 6.90089 42.0083 6.74177 42.0865C6.5289 42.2352 6.27522 42.3134 6.016 42.3103C5.75678 42.3072 5.50493 42.223 5.29562 42.0694C5.08631 41.9157 4.92994 41.7003 4.84826 41.4531C4.76658 41.206 4.76367 40.9394 4.83994 40.6905C4.89568 40.5246 4.9835 40.3714 5.09838 40.2397C5.21326 40.108 5.35291 40.0005 5.50932 39.9232ZM5.78489 40.3745C5.57035 40.4767 5.40116 40.6552 5.31015 40.8755C5.28186 40.9621 5.27086 41.0535 5.27775 41.1444C5.28464 41.2353 5.30929 41.324 5.35032 41.4053C5.39136 41.4866 5.44795 41.559 5.51686 41.6183C5.58577 41.6777 5.66566 41.7227 5.75194 41.751L5.80884 41.7661C6.04567 41.8009 6.28699 41.7474 6.48722 41.6157C6.70106 41.5158 6.87063 41.34 6.96342 41.1222C7.01684 40.9399 6.99606 40.7437 6.90565 40.5767C6.81525 40.4097 6.66263 40.2856 6.48123 40.2315H6.45728C6.22286 40.1973 5.98405 40.2509 5.78635 40.382L5.78489 40.3745Z" fill="#034A9A"/>
<path d="M5.94373 43.1788L8.04024 41.7014L9.04808 43.1441L8.69316 43.3939L7.98334 42.3769L7.48763 42.7275L8.10162 43.6045L7.74671 43.8542L7.13272 42.9771L6.2432 43.6045L5.94373 43.1788Z" fill="#034A9A"/>
<path d="M7.93982 45.8371L9.87314 44.1521L10.2116 44.5448L8.27828 46.2297L7.93982 45.8371Z" fill="#034A9A"/>
<path d="M8.67358 46.6931L10.4841 44.8772L10.8405 45.2354L10.3703 47.1911L11.5803 45.9785L11.9202 46.32L10.1082 48.1359L9.74284 47.7673L10.1921 45.8491L9.01053 47.0331L8.67358 46.6931Z" fill="#034A9A"/>
<path d="M10.6219 48.5992L12.2573 46.6224L13.605 47.7492L13.3265 48.0832L12.3755 47.2904L11.9877 47.7583L12.8083 48.4443L12.5328 48.7783L11.7106 48.0923L11.0158 48.9317L10.6219 48.5992Z" fill="#034A9A"/>
<path d="M13.0479 48.9708C13.1685 48.7807 13.327 48.6178 13.5136 48.4924C13.6351 48.4195 13.7684 48.3685 13.9074 48.3419C14.0403 48.3148 14.1773 48.3148 14.3103 48.3419C14.4943 48.3828 14.6684 48.46 14.8224 48.5691C14.9651 48.6566 15.088 48.7732 15.1832 48.9113C15.2784 49.0494 15.3437 49.206 15.375 49.371C15.4007 49.7246 15.3071 50.0766 15.1093 50.3703C14.9116 50.664 14.6211 50.8822 14.2848 50.9897C14.1214 51.0213 13.9533 51.0183 13.7912 50.981C13.629 50.9437 13.4763 50.873 13.3429 50.7731C13.2 50.6854 13.0769 50.5688 12.9812 50.4308C12.8856 50.2928 12.8196 50.1363 12.7873 49.9712C12.7623 49.7955 12.7724 49.6164 12.8172 49.4446C12.8619 49.2728 12.9404 49.1118 13.0479 48.9708ZM13.4971 49.2567C13.3499 49.4438 13.2768 49.679 13.292 49.9171C13.3039 50.0134 13.3369 50.1059 13.3887 50.1878C13.4405 50.2698 13.5097 50.3392 13.5914 50.391C13.6689 50.4473 13.7579 50.4856 13.8519 50.503C13.946 50.5204 14.0427 50.5166 14.135 50.4918C14.3516 50.4007 14.5375 50.2488 14.6703 50.0542C14.8031 49.8597 14.8772 49.6308 14.8838 49.395C14.8675 49.3024 14.8333 49.2138 14.7829 49.1345C14.7325 49.0551 14.6671 48.9865 14.5903 48.9325C14.5135 48.8786 14.4269 48.8404 14.3354 48.8201C14.244 48.7999 14.1494 48.7979 14.0572 48.8144H14.0332C13.8078 48.8899 13.618 49.0463 13.5001 49.2536L13.4971 49.2567Z" fill="#034A9A"/>
<path d="M14.8868 51.7074L16.0938 49.4417L17.0523 49.9577C17.2339 50.0445 17.4003 50.1604 17.5449 50.3008C17.6334 50.3998 17.6862 50.5259 17.6947 50.6588C17.7045 50.8017 17.6728 50.9444 17.6033 51.0695C17.5274 51.2273 17.3938 51.3496 17.2305 51.411C17.047 51.4673 16.8497 51.4566 16.6734 51.3809C16.7386 51.4803 16.789 51.5888 16.8231 51.7028C16.8595 51.8695 16.8806 52.0393 16.886 52.2099L16.9265 52.7996L16.3813 52.5063L16.314 51.8352C16.3028 51.6802 16.2823 51.5259 16.2526 51.3734C16.237 51.3116 16.2073 51.2545 16.1657 51.2064C16.1018 51.1456 16.0291 51.0948 15.9501 51.0559L15.8572 51.0064L15.3526 51.9526L14.8868 51.7074ZM16.0384 50.6453L16.3769 50.8258C16.5101 50.9062 16.6523 50.9703 16.8006 51.0168C16.8619 51.0288 16.9254 51.0193 16.9804 50.9897C17.04 50.9547 17.0875 50.9022 17.1167 50.8393C17.1552 50.7742 17.1685 50.6971 17.1541 50.6227C17.135 50.5498 17.091 50.4859 17.0298 50.4422C16.9953 50.4166 16.88 50.3549 16.7018 50.2556L16.3454 50.0645L16.0384 50.6453Z" fill="#034A9A"/>
<path d="M17.3174 52.9846L18.2713 50.6001L18.9886 50.889L18.767 52.6943L19.8437 51.2395L20.564 51.5299L19.61 53.9144L19.1608 53.7339L19.9096 51.8563L18.6876 53.5428L18.2264 53.3562L18.5079 51.2892L17.7591 53.1667L17.3174 52.9846Z" fill="#034A9A"/>
<path d="M22.4823 54.7449L21.9402 54.5944L21.8818 53.9716L20.8964 53.6948L20.537 54.1988L20.0099 54.0483L21.6572 51.8428L22.1828 51.9933L22.4823 54.7449ZM21.8398 53.5097L21.756 52.4957L21.1674 53.3217L21.8398 53.5097Z" fill="#034A9A"/>
<path d="M23.1876 54.8667L23.589 52.7696L22.8402 52.6191L22.9211 52.1918L24.9173 52.5769L24.8349 53.0042L24.0861 52.8538L23.6848 54.9494L23.1876 54.8667Z" fill="#034A9A"/>
<path d="M24.8499 55.151L25.1748 52.5935L25.6885 52.6597L25.362 55.2172L24.8499 55.151Z" fill="#034A9A"/>
<path d="M25.9266 54.0318C25.9313 53.8061 25.9823 53.5838 26.0763 53.3788C26.1422 53.252 26.2293 53.1375 26.3339 53.0404C26.4329 52.9472 26.5495 52.875 26.6768 52.8282C26.8555 52.7675 27.0444 52.7435 27.2324 52.7575C27.3994 52.7588 27.5643 52.7954 27.7165 52.8645C27.8686 52.9337 28.0047 53.0341 28.1159 53.1592C28.2266 53.2984 28.3088 53.4581 28.3579 53.6292C28.407 53.8004 28.422 53.9797 28.402 54.1567C28.4026 54.3335 28.3684 54.5086 28.3014 54.6721C28.2343 54.8355 28.1357 54.984 28.0112 55.109C27.8877 55.2209 27.7421 55.3055 27.5839 55.3573C27.4258 55.4092 27.2586 55.427 27.0932 55.4098C26.9258 55.409 26.7604 55.373 26.6077 55.3041C26.455 55.2352 26.3184 55.1348 26.2066 55.0096C26.0979 54.8733 26.0172 54.7167 25.9691 54.5488C25.921 54.381 25.9066 54.2053 25.9266 54.0318ZM26.4582 54.0423C26.4295 54.2791 26.4881 54.5184 26.623 54.7148C26.6804 54.7853 26.751 54.8438 26.8309 54.8869C26.9109 54.93 26.9984 54.9569 27.0887 54.966C27.1789 54.9751 27.2701 54.9662 27.357 54.9399C27.4438 54.9136 27.5246 54.8703 27.5948 54.8126L27.6382 54.7734C27.7939 54.59 27.8771 54.3555 27.8719 54.1145C27.9027 53.8795 27.8468 53.6414 27.7146 53.445C27.6547 53.3693 27.5787 53.308 27.4921 53.2656C27.4056 53.2232 27.3107 53.2007 27.2145 53.1998C27.1182 53.1906 27.0212 53.2031 26.9303 53.2361C26.8394 53.2692 26.7569 53.322 26.6888 53.3909C26.5352 53.5723 26.4531 53.8041 26.4582 54.0423Z" fill="#034A9A"/>
<path d="M28.8902 55.4219L28.7749 52.8643L29.2766 52.8417L30.4027 54.5056L30.3218 52.7921L30.801 52.7695L30.9223 55.3376L30.4057 55.3632L29.296 53.7369L29.3739 55.4113L28.8902 55.4219Z" fill="#034A9A"/>
<path d="M34.7933 54.7283L34.2408 54.8291L33.9158 54.2965L32.911 54.4815L32.8076 55.0939L32.2686 55.1932L32.7882 52.4852L33.3258 52.3859L34.7933 54.7283ZM33.6762 53.8994L33.1581 53.0253L32.9888 54.0257L33.6762 53.8994Z" fill="#034A9A"/>
<path d="M35.2171 54.617L34.5043 52.1482L34.988 52.0083L36.469 53.3623L35.9928 51.7074L36.454 51.5735L37.1654 54.0423L36.6682 54.1927L35.2126 52.8719L35.6769 54.4815L35.2171 54.617Z" fill="#034A9A"/>
<path d="M36.8689 51.4366L37.7435 51.0816C37.8932 51.0157 38.0507 50.9691 38.2122 50.9431C38.3659 50.9271 38.5211 50.9531 38.6614 51.0184C38.8086 51.0895 38.9385 51.1922 39.0418 51.3192C39.1701 51.4784 39.2713 51.6579 39.3413 51.8503C39.4146 52.0208 39.4591 52.2023 39.4731 52.3874C39.4867 52.5661 39.4579 52.7456 39.3892 52.911C39.3286 53.0385 39.2394 53.1502 39.1287 53.2374C39.0055 53.3308 38.8692 53.4053 38.7243 53.4585L37.8258 53.8256L36.8689 51.4366ZM37.5098 51.6457L38.1448 53.2254L38.5012 53.075C38.5997 53.0386 38.6941 52.9916 38.7827 52.935C38.8468 52.8889 38.8982 52.8273 38.9325 52.756C38.9682 52.6674 38.9801 52.5709 38.9669 52.4762C38.9455 52.3205 38.9027 52.1687 38.8396 52.0249C38.7881 51.8791 38.7138 51.7424 38.6195 51.6201C38.5596 51.5431 38.4813 51.4825 38.3919 51.4441C38.3068 51.4121 38.2146 51.4044 38.1253 51.4216C37.9874 51.4555 37.8526 51.5013 37.7225 51.5585L37.5098 51.6457Z" fill="#034A9A"/>
<path d="M42.2435 50.6422L42.7557 50.5279C42.831 50.7679 42.8241 51.0263 42.7362 51.262C42.6146 51.5133 42.4097 51.7143 42.1567 51.8304C41.9036 51.9465 41.6183 51.9706 41.3495 51.8984C41.0197 51.7865 40.747 51.5487 40.5903 51.2365C40.3905 50.9336 40.3149 50.565 40.3791 50.2074C40.4169 50.0496 40.4877 49.9017 40.5869 49.7736C40.686 49.6454 40.8113 49.5399 40.9542 49.4642C41.1911 49.3127 41.4781 49.2619 41.7523 49.3228C41.9286 49.3723 42.0884 49.4684 42.2151 49.6011L41.8332 49.9652C41.7505 49.87 41.637 49.8072 41.5127 49.7877C41.3874 49.7697 41.2597 49.7963 41.1518 49.8629C41.0744 49.9044 41.0073 49.9629 40.9555 50.034C40.9036 50.1051 40.8684 50.187 40.8524 50.2736C40.8324 50.5089 40.8955 50.7438 41.0306 50.9371C41.133 51.1601 41.3085 51.3412 41.5277 51.4501C41.6086 51.4803 41.6954 51.4916 41.7813 51.483C41.8672 51.4744 41.95 51.4462 42.0234 51.4005C42.1376 51.3374 42.2238 51.233 42.2645 51.1086C42.3054 50.9547 42.2981 50.7918 42.2435 50.6422Z" fill="#034A9A"/>
<path d="M42.829 49.9127C42.6919 49.7342 42.5925 49.5293 42.537 49.3109C42.5078 49.1708 42.5038 49.0266 42.525 48.8851C42.5424 48.7502 42.5867 48.6203 42.6553 48.503C42.756 48.3428 42.8873 48.2042 43.0416 48.0953C43.1721 47.9901 43.3231 47.9135 43.4848 47.8705C43.6465 47.8275 43.8154 47.819 43.9806 47.8455C44.157 47.8623 44.3282 47.9144 44.4842 47.9986C44.6402 48.0829 44.7779 48.1976 44.8892 48.3362C45.0004 48.4747 45.0829 48.6342 45.1319 48.8052C45.1808 48.9762 45.1953 49.1554 45.1743 49.3321C45.1533 49.5088 45.0974 49.6795 45.0098 49.8342C44.9221 49.9888 44.8046 50.1243 44.664 50.2327C44.5235 50.341 44.3628 50.4201 44.1915 50.4651C44.0201 50.5101 43.8414 50.5202 43.6661 50.4948C43.4951 50.4585 43.333 50.3883 43.1892 50.2883C43.0455 50.1884 42.923 50.0607 42.829 49.9127ZM43.2498 49.5847C43.3752 49.7863 43.5704 49.9342 43.7979 49.9999C43.9772 50.0368 44.1637 50.0005 44.3165 49.8993C44.4693 49.798 44.5758 49.6399 44.6125 49.4598C44.6125 49.4402 44.6125 49.4207 44.6215 49.4011C44.6266 49.1604 44.5441 48.9261 44.3894 48.7422C44.2659 48.5407 44.0729 48.3918 43.8473 48.3239C43.7535 48.3033 43.6563 48.3039 43.5628 48.3258C43.4693 48.3476 43.3818 48.3902 43.3067 48.4503C43.2263 48.5042 43.1588 48.5753 43.1091 48.6586C43.0594 48.7418 43.0287 48.8351 43.0192 48.9317C43.013 49.1705 43.0952 49.4032 43.2498 49.5847Z" fill="#034A9A"/>
<path d="M46.0202 49.1092L44.2921 47.2136L44.8626 46.6901L46.3842 47.668L45.544 46.0627L46.1146 45.5377L47.8412 47.4333L47.4878 47.7582L46.128 46.2658L47.1134 48.1028L46.7466 48.4398L45.0139 47.2919L46.3736 48.7827L46.0202 49.1092Z" fill="#034A9A"/>
<path d="M48.319 46.9278L46.3827 45.2474L46.8888 44.6591L48.5122 45.4519L47.4908 43.9565L47.9985 43.3683L49.9348 45.0473L49.6203 45.4128L48.0958 44.0905L49.2939 45.7995L48.9689 46.1771L47.115 45.2398L48.6394 46.5637L48.319 46.9278Z" fill="#034A9A"/>
<path d="M48.2395 43.0508L48.539 42.6236L49.6801 43.4119C49.7957 43.4969 49.9174 43.5734 50.044 43.6406C50.1388 43.6824 50.2458 43.6867 50.3436 43.6527C50.4571 43.6095 50.5526 43.5289 50.6146 43.424C50.6885 43.3319 50.7291 43.2174 50.7299 43.0991C50.7249 43.0098 50.687 42.9255 50.6236 42.8628C50.5156 42.7643 50.4 42.6748 50.2777 42.595L49.1126 41.7886L49.4121 41.3614L50.5187 42.1272C50.7016 42.2458 50.8731 42.3812 51.0309 42.5319C51.1147 42.6187 51.1755 42.7252 51.2076 42.8418C51.2373 42.9623 51.2373 43.0883 51.2076 43.2089C51.1657 43.3717 51.093 43.5249 50.9935 43.6602C50.8936 43.8219 50.7622 43.9616 50.6071 44.0709C50.5021 44.1401 50.3817 44.1824 50.2567 44.1942C50.1495 44.2042 50.0416 44.1898 49.9407 44.1521C49.7415 44.0631 49.5523 43.9532 49.3761 43.8242L48.2395 43.0508Z" fill="#034A9A"/>
<path d="M51.8786 42.2145L49.6323 40.9808L49.8734 40.5385L51.8741 40.4391L50.3766 39.6162L50.6072 39.1935L52.8535 40.4271L52.6049 40.8785L50.6461 40.9823L52.1092 41.7871L51.8786 42.2145Z" fill="#034A9A"/>
<path d="M53.114 39.8389L50.7883 38.7677L51.0025 38.2968L53.3296 39.3665L53.114 39.8389Z" fill="#034A9A"/>
<path d="M53.2742 36.9444L53.5992 36.5291C53.809 36.6666 53.9671 36.8704 54.0485 37.1084C54.114 37.3801 54.0833 37.6662 53.9617 37.9177C53.8401 38.1692 53.6352 38.3703 53.3821 38.4865C53.0561 38.6101 52.6948 38.6004 52.3758 38.4594C52.0296 38.3538 51.7376 38.1177 51.5611 37.8004C51.49 37.6548 51.4506 37.4956 51.4457 37.3334C51.4408 37.1713 51.4704 37.0099 51.5326 36.8602C51.6199 36.5917 51.8094 36.3688 52.0598 36.2404C52.2268 36.1648 52.4111 36.1367 52.5929 36.1591L52.5285 36.6841C52.4039 36.6623 52.2757 36.6863 52.1673 36.7518C52.0589 36.8173 51.9777 36.9199 51.9385 37.0407C51.905 37.1217 51.8902 37.2092 51.8951 37.2967C51.9001 37.3842 51.9246 37.4695 51.9669 37.5462C52.0999 37.741 52.2973 37.8822 52.524 37.9449C52.7442 38.0516 52.9941 38.0797 53.2323 38.0246C53.3138 37.996 53.3876 37.9493 53.4484 37.8878C53.5091 37.8262 53.555 37.7516 53.5828 37.6696C53.6307 37.5473 53.6307 37.4112 53.5828 37.2889C53.5173 37.1451 53.4096 37.0249 53.2742 36.9444Z" fill="#034A9A"/>
<path d="M55.0922 33.9821L54.9514 34.5283L54.333 34.599L54.0754 35.5919L54.5846 35.9439L54.4468 36.4765L52.22 34.8623L52.3578 34.3312L55.0922 33.9821ZM53.8732 34.6516L52.8654 34.7539L53.698 35.3301L53.8732 34.6516Z" fill="#034A9A"/>
<path d="M55.2001 33.2705L53.1035 32.9125L52.9762 33.6647L52.5494 33.591L52.8909 31.5765L53.3177 31.6503L53.1904 32.4025L55.2869 32.7606L55.2001 33.2705Z" fill="#034A9A"/>
<path d="M55.4486 31.5841L52.9028 31.3133L52.9567 30.7973L55.5025 31.0665L55.4486 31.5841Z" fill="#034A9A"/>
<path d="M54.3105 30.534C54.0858 30.5345 53.8634 30.4879 53.6576 30.3971C53.5291 30.3348 53.4125 30.2502 53.3132 30.1473C53.2181 30.0498 53.1433 29.9342 53.0931 29.8073C53.0281 29.6288 52.9991 29.4391 53.0077 29.2492C53.0043 29.0804 53.0363 28.9129 53.1016 28.7574C53.1668 28.6019 53.2639 28.4619 53.3866 28.3465C53.6701 28.1344 54.0165 28.0247 54.3699 28.035C54.7232 28.0454 55.0627 28.1753 55.3334 28.4037C55.4476 28.5252 55.5353 28.6693 55.5909 28.8268C55.6466 28.9843 55.6691 29.1517 55.6568 29.3184C55.6597 29.4868 55.6279 29.654 55.5632 29.8093C55.4985 29.9647 55.4024 30.1049 55.281 30.221C55.1477 30.3349 54.9934 30.4211 54.8268 30.4748C54.6603 30.5285 54.4848 30.5486 54.3105 30.534ZM54.3105 29.9984C54.5468 30.0232 54.7838 29.9588 54.9754 29.8178C55.0441 29.7586 55.1005 29.6864 55.1413 29.6052C55.1822 29.5241 55.2067 29.4356 55.2135 29.3449C55.2204 29.2543 55.2093 29.1631 55.1811 29.0767C55.1528 28.9903 55.1079 28.9104 55.0488 28.8415L55.0084 28.7979C54.8224 28.6459 54.5874 28.5678 54.348 28.5782C54.1137 28.553 53.8784 28.6145 53.6861 28.7512C53.6169 28.8148 53.5607 28.8915 53.521 28.9769C53.4813 29.0623 53.4587 29.1547 53.4545 29.2489C53.4504 29.343 53.4647 29.4371 53.4967 29.5257C53.5287 29.6142 53.5778 29.6956 53.6412 29.7652L53.6576 29.7817C53.8418 29.9323 54.0748 30.0095 54.3121 29.9984H54.3105Z" fill="#034A9A"/>
<path d="M55.6298 27.498L53.084 27.6891L53.0465 27.1866L54.6728 26.0087L52.9687 26.1365L52.9327 25.6566L55.4785 25.4641L55.5174 25.9831L53.9301 27.1415L55.5938 27.0166L55.6298 27.498Z" fill="#034A9A"/>
<path d="M54.586 25.0473L54.4513 24.5584C54.5876 24.5183 54.7057 24.4315 54.7852 24.3132C54.8499 24.1931 54.8685 24.0534 54.8376 23.9205C54.8245 23.7863 54.7645 23.6611 54.6684 23.567C54.6334 23.5337 54.5914 23.509 54.5454 23.4946C54.4995 23.4803 54.4509 23.4767 54.4033 23.4842C54.3451 23.4906 54.2915 23.5191 54.2536 23.5639C54.2106 23.6236 54.1842 23.6937 54.1772 23.7671C54.1667 23.8302 54.1532 23.9732 54.1383 24.1958C54.1362 24.4117 54.085 24.6242 53.9885 24.8172C53.9058 24.9594 53.7739 25.0662 53.6179 25.1172C53.4619 25.1683 53.2927 25.16 53.1424 25.094C53.014 25.0376 52.9058 24.9431 52.8325 24.8232C52.7425 24.6756 52.6829 24.5114 52.6572 24.3402C52.594 24.0875 52.6238 23.8204 52.7411 23.588C52.7966 23.4967 52.8709 23.4184 52.959 23.3582C53.047 23.298 53.1468 23.2573 53.2518 23.239L53.364 23.746C53.2583 23.7752 53.1674 23.8435 53.1095 23.9371C53.0627 24.0436 53.0527 24.1627 53.081 24.2755C53.0952 24.3998 53.1475 24.5166 53.2308 24.6095C53.2526 24.6319 53.2797 24.6484 53.3095 24.6576C53.3393 24.6668 53.3709 24.6684 53.4015 24.6622C53.4308 24.6564 53.4584 24.6443 53.4825 24.6266C53.5065 24.6089 53.5264 24.5862 53.5408 24.5599C53.5991 24.4 53.6281 24.2308 53.6261 24.0604C53.6312 23.8632 53.6594 23.6673 53.71 23.4767C53.7483 23.3516 53.8197 23.2393 53.9167 23.1518C54.0285 23.06 54.1629 23.0001 54.3057 22.9784C54.4484 22.9567 54.5944 22.974 54.7283 23.0284C54.8694 23.088 54.9883 23.1906 55.0682 23.3217C55.1657 23.4854 55.2299 23.667 55.2569 23.8558C55.3207 24.1173 55.2877 24.3932 55.1641 24.6321C55.0309 24.8393 54.8242 24.9877 54.586 25.0473Z" fill="#034A9A"/>
<path d="M28.694 15.0338C31.9993 14.9476 35.2624 15.7957 38.1114 17.4815C40.9605 19.1673 43.281 21.623 44.8088 24.5689C43.9073 20.8767 41.7817 17.6027 38.7817 15.2856C35.7817 12.9684 32.086 11.7462 28.3025 11.8199C24.519 11.8936 20.8732 13.2589 17.9649 15.6911C15.0566 18.1234 13.0589 21.4777 12.3007 25.2023C13.7468 22.0847 16.0697 19.4606 18.9828 17.6537C21.8959 15.8468 25.2717 14.936 28.694 15.0338Z" fill="#034A9A"/>
<path d="M28.6475 20.1985C30.6359 20.1601 32.5975 20.6639 34.3234 21.6566C36.0494 22.6493 37.4751 24.0935 38.4488 25.8356C37.8378 23.6528 36.5251 21.7345 34.7153 20.3797C32.9054 19.025 30.7002 18.31 28.4434 18.3462C26.1867 18.3825 24.0054 19.1679 22.2395 20.5801C20.4737 21.9923 19.2227 23.9518 18.6815 26.153C19.622 24.3234 21.0545 22.7955 22.8162 21.7429C24.5779 20.6903 26.5982 20.1553 28.6475 20.1985Z" fill="#034A9A"/>
<path d="M28.5203 51.5313H28.67C26.9767 48.7394 24.5987 46.4307 21.7633 44.826C18.928 43.2214 15.7302 42.3745 12.4759 42.3663C11.7195 42.3678 10.9639 42.415 10.2131 42.5078C12.3736 45.3192 15.1477 47.595 18.3217 49.1594C21.4957 50.7239 24.9848 51.5353 28.5203 51.5313Z" fill="#034A9A"/>
<path d="M6.0291 28.4127C5.81196 28.4127 5.59931 28.4247 5.38367 28.4293C5.39349 30.0914 5.58073 31.7478 5.94222 33.3698C7.78678 33.3591 9.62734 33.5432 11.4336 33.919C21.6572 36.0417 28.8602 43.6978 28.408 51.5299H28.5188C28.6147 51.5299 28.709 51.5299 28.8034 51.5223C28.8087 45.4314 26.4183 39.5851 22.1526 35.2566C17.887 30.9282 12.0918 28.4683 6.0291 28.4127Z" fill="#034A9A"/>
<path d="M7.63293 35.8687C7.30497 35.8687 6.97999 35.8807 6.65503 35.8943C7.1086 37.2095 7.67949 38.4809 8.36071 39.693C10.2617 39.6368 12.1626 39.8054 14.0243 40.1954C21.2543 41.6999 26.8655 46.1891 29.0579 51.5193H29.0863C27.5897 46.9838 24.7146 43.0342 20.866 40.2266C17.0174 37.419 12.3891 35.8948 7.63293 35.8687Z" fill="#034A9A"/>
<path d="M28.6251 51.5313H28.4753C30.3562 48.3975 33.0999 45.8777 36.375 44.2759C39.6501 42.6742 43.3168 42.059 46.9323 42.5047C44.772 45.3166 41.998 47.5927 38.824 49.1577C35.65 50.7227 32.1608 51.5348 28.6251 51.5313Z" fill="#034A9A"/>
<path d="M51.1148 28.4127C51.332 28.4127 51.5461 28.4247 51.7603 28.4293C51.7502 30.0913 51.5635 31.7476 51.2032 33.3698C49.3587 33.3591 47.5181 33.5432 45.7118 33.919C35.4867 36.0417 28.2852 43.6978 28.7375 51.5299H28.6251C28.5293 51.5299 28.4349 51.5299 28.3406 51.5223C28.3344 45.4312 30.7246 39.5843 34.9904 35.2557C39.2562 30.9271 45.0519 28.4675 51.1148 28.4127Z" fill="#034A9A"/>
<path d="M49.514 35.8687C49.8404 35.8687 50.1653 35.8807 50.4903 35.8943C50.037 37.2094 49.4667 38.4808 48.7861 39.693C46.8847 39.6367 44.9833 39.8053 43.121 40.1954C35.8895 41.6999 30.2798 46.1891 28.086 51.5193H28.062C29.5584 46.9839 32.4332 43.0344 36.2815 40.2268C40.1299 37.4191 44.758 35.8949 49.514 35.8687Z" fill="#034A9A"/>
<path d="M28.5637 21.9346V29.0055H22.8732L28.5637 21.9346Z" fill="#034A9A"/>
<path d="M28.6895 36.1636V29.0927H34.38L28.6895 36.1636Z" fill="#034A9A"/>
<path d="M28.5637 1.9247e-05C22.9557 0.0134021 17.4775 1.69624 12.8211 4.83599C8.16475 7.97573 4.53911 12.4315 2.40226 17.6403C0.265409 22.8492 -0.286779 28.5775 0.815443 34.1015C1.91766 39.6255 4.62487 44.6973 8.59501 48.6764C12.5652 52.6554 17.6201 55.363 23.1213 56.4572C28.6225 57.5515 34.3231 56.9831 39.5029 54.824C44.6827 52.665 49.1094 49.012 52.2236 44.3267C55.3379 39.6414 57 34.1339 57 28.5C56.9909 20.9324 53.9899 13.6784 48.6571 8.33368C43.3243 2.98893 36.0965 -0.00876403 28.5637 1.9247e-05ZM28.5637 56.4659C23.0608 56.4528 17.6852 54.8016 13.1161 51.7207C8.54693 48.6398 4.9892 44.2676 2.89235 39.1563C0.795509 34.0451 0.253656 28.4241 1.3352 23.0037C2.41674 17.5832 5.07315 12.6063 8.96889 8.70185C12.8646 4.79736 17.8248 2.1404 23.2229 1.06669C28.6211 -0.00703166 34.2149 0.550627 39.2976 2.66923C44.3804 4.78784 48.7241 8.37236 51.78 12.9699C54.8359 17.5674 56.4669 22.9717 56.4669 28.5C56.4626 32.1769 55.7374 35.8169 54.3328 39.2123C52.9282 42.6076 50.8717 45.6917 48.2806 48.2886C45.6896 50.8855 42.6147 52.9442 39.2317 54.3473C35.8487 55.7504 32.2237 56.4703 28.5637 56.4659Z" fill="#034A9A"/>
<path d="M51.7483 27.5056C51.4805 21.5261 48.9256 15.8811 44.6162 11.7478C40.3069 7.61444 34.5757 5.31171 28.6177 5.31969H28.5368C22.579 5.31209 16.8482 7.61503 12.5391 11.7483C8.23009 15.8816 5.67536 21.5263 5.40759 27.5056C6.76584 17.5417 16.6135 9.80744 28.5772 9.78337C40.5409 9.80744 50.39 17.5417 51.7483 27.5056Z" fill="#034A9A"/>
</g>
<defs>
<clipPath id="clip0">
<rect width="57" height="57" fill="white"/>
</clipPath>
</defs>
</svg>
 